<mxfile host="app.diagrams.net" modified="2024-01-05T09:09:19.360Z" agent="Mozilla/5.0 (Windows NT 10.0; Win64; x64) AppleWebKit/537.36 (KHTML, like Gecko) Chrome/120.0.0.0 Safari/537.36" version="22.1.16" etag="zVAVp7Ks18sSLrhlq1KY" type="github">
  <diagram name="Page-1" id="UEJptRoU3-xHftpg79eL">
    <mxGraphModel>
      <root>
        <mxCell id="0" />
        <mxCell id="1" parent="0" />
      </root>
    </mxGraphModel>
  </diagram>
</mxfile>
